<?xml version="1.0" standalone="no"?>
<!DOCTYPE svg PUBLIC "-//W3C//DTD SVG 20010904//EN"
 "http://www.w3.org/TR/2001/REC-SVG-20010904/DTD/svg10.dtd">
<svg version="1.0" xmlns="http://www.w3.org/2000/svg"
 width="1000.000000pt" height="1000.000000pt" viewBox="0 0 1000.000000 1000.000000"
 preserveAspectRatio="xMidYMid meet">
<metadata>
Created by potrace 1.11, written by Peter Selinger 2001-2013
</metadata>
<g transform="translate(0.000000,1000.000000) scale(0.100000,-0.100000)"
fill="#000000" stroke="none">
<path d="M4709 8466 c-2 -2 -41 -6 -87 -10 -46 -3 -134 -14 -195 -23 -62 -9
-123 -17 -137 -19 -14 -1 -25 -3 -25 -4 0 -2 -9 -4 -20 -6 -19 -3 -82 -17
-135 -29 -14 -3 -36 -8 -49 -11 -14 -3 -28 -7 -33 -10 -4 -3 -17 -7 -29 -9
-25 -5 -216 -65 -244 -76 -45 -19 -81 -32 -95 -35 -8 -2 -23 -7 -35 -13 -11
-6 -45 -21 -75 -34 -134 -58 -200 -91 -200 -99 0 -5 -4 -6 -10 -3 -5 3 -10 2
-10 -3 0 -5 -6 -9 -13 -9 -43 0 -466 -279 -599 -395 -14 -13 -45 -38 -68 -57
-88 -72 -310 -300 -400 -411 -19 -23 -40 -48 -45 -54 -6 -6 -22 -27 -35 -46
-13 -19 -29 -40 -35 -47 -5 -7 -16 -19 -22 -27 -34 -40 -201 -306 -203 -324
-1 -4 -8 -14 -15 -22 -7 -8 -18 -26 -24 -40 -6 -14 -15 -32 -20 -40 -6 -8 -16
-28 -24 -45 -7 -16 -23 -47 -35 -68 -12 -20 -22 -39 -22 -42 0 -3 -6 -21 -14
-40 -9 -20 -16 -37 -16 -40 -1 -3 -12 -31 -26 -62 -41 -91 -83 -211 -76 -217
3 -3 0 -6 -6 -6 -7 0 -11 -3 -10 -7 1 -5 -6 -35 -17 -68 -10 -33 -19 -67 -21
-75 -2 -8 -16 -68 -33 -133 -17 -65 -33 -136 -36 -157 -3 -22 -8 -54 -11 -72
-3 -18 -6 -45 -8 -59 -1 -14 -5 -30 -8 -35 -3 -5 -5 -22 -3 -39 1 -16 -1 -34
-4 -40 -6 -10 -7 -19 -15 -135 -7 -90 -10 -102 -32 -114 -10 -6 -33 -21 -51
-33 -17 -13 -34 -23 -38 -23 -3 0 -33 -18 -65 -40 -32 -22 -63 -40 -68 -40 -6
0 -12 -7 -16 -15 -3 -8 -10 -15 -16 -15 -12 0 -266 -178 -293 -204 -9 -9 -18
-16 -22 -16 -5 0 -79 -58 -121 -95 -6 -5 -31 -26 -55 -47 -110 -91 -179 -156
-179 -169 0 -6 -3 -8 -7 -6 -5 3 -21 -13 -38 -34 -16 -21 -35 -38 -40 -39 -6
0 -18 -12 -28 -27 -9 -16 -35 -48 -57 -73 -23 -25 -49 -57 -58 -72 -9 -16 -20
-28 -24 -28 -4 0 -8 -5 -8 -11 0 -6 -12 -26 -26 -45 -32 -42 -61 -90 -75 -126
-6 -16 -15 -28 -20 -28 -5 0 -9 -7 -9 -15 0 -9 -10 -35 -22 -58 -12 -23 -22
-44 -23 -47 -3 -24 -29 -100 -34 -100 -3 0 -7 -10 -7 -22 -1 -13 -9 -61 -18
-108 -30 -155 -16 -332 41 -502 19 -60 40 -108 46 -108 6 0 8 -3 4 -6 -6 -7
67 -129 110 -184 30 -37 137 -146 168 -170 64 -50 140 -100 152 -100 7 0 13
-5 13 -11 0 -5 4 -8 9 -5 5 4 11 2 13 -2 5 -13 183 -92 258 -114 77 -23 166
-45 212 -53 18 -3 49 -8 68 -12 19 -4 44 -8 55 -9 11 -1 20 -3 20 -4 0 -1 63
-7 185 -16 110 -8 500 -11 500 -4 0 3 19 5 43 6 44 0 220 13 272 19 17 2 56 6
88 9 32 3 62 8 67 11 6 4 10 0 10 -7 0 -8 3 -9 8 -3 8 12 8 11 87 19 33 3 71
8 85 11 85 16 100 15 130 -13 16 -15 52 -45 80 -67 29 -22 66 -52 83 -67 18
-15 35 -28 39 -28 5 0 16 -7 25 -16 39 -34 139 -103 151 -104 6 0 12 -4 12 -9
0 -5 14 -14 30 -21 17 -7 30 -16 30 -21 0 -4 10 -11 23 -15 12 -4 45 -21 72
-38 51 -33 75 -44 86 -42 4 0 15 -7 26 -16 10 -9 54 -33 98 -53 44 -20 103
-47 130 -59 111 -51 111 -51 153 -61 17 -4 32 -11 32 -16 0 -5 6 -9 14 -9 8 0
68 -18 135 -40 67 -21 131 -41 144 -42 12 -2 27 -7 33 -10 6 -4 25 -9 43 -10
17 -1 31 -5 31 -8 0 -3 17 -7 37 -8 20 -2 42 -7 48 -12 7 -6 14 -8 16 -6 2 3
27 0 54 -5 28 -6 68 -12 90 -15 22 -3 65 -9 95 -14 106 -18 237 -25 445 -25
223 0 344 7 495 30 25 3 61 9 80 11 19 3 53 9 75 14 22 5 56 12 75 15 19 3 43
8 52 11 9 3 26 7 37 9 12 3 30 7 41 10 11 3 30 7 43 10 32 7 216 64 252 78 17
6 32 12 35 13 3 0 18 6 33 12 16 7 31 12 34 12 6 0 92 36 181 76 29 13 55 24
57 24 3 0 23 11 45 25 22 14 40 23 40 21 0 -3 48 23 108 56 59 34 117 66 129
72 13 6 23 14 23 19 0 4 7 7 15 7 8 0 15 5 15 11 0 5 4 8 9 4 6 -3 14 3 20 12
6 10 11 14 11 8 0 -6 3 -6 8 0 4 6 51 42 106 80 54 39 108 77 119 85 12 8 29
22 37 30 9 8 38 33 65 55 141 116 384 361 445 449 8 12 19 26 25 31 7 6 36 43
65 83 29 39 57 72 63 72 6 0 7 3 4 6 -4 4 7 24 24 45 17 22 27 39 22 39 -4 0
-3 4 3 8 15 9 104 149 104 162 0 6 3 10 8 10 4 0 17 23 30 50 13 28 27 50 32
50 6 0 9 3 8 8 -3 11 46 112 54 112 5 0 8 5 8 11 0 10 22 62 58 139 9 19 17
37 17 40 1 3 7 19 14 35 23 54 62 159 78 210 8 28 18 54 21 60 3 5 7 16 7 25
2 16 32 126 42 150 3 8 6 18 5 22 -1 4 2 18 7 31 5 13 12 39 15 58 3 19 8 45
11 59 3 14 7 36 10 49 5 29 23 51 40 51 8 0 15 3 17 8 2 6 152 99 223 138 42
23 311 203 326 218 9 9 19 16 22 16 10 0 221 161 225 171 2 5 8 9 13 9 5 0 17
8 28 18 22 20 113 98 148 127 65 52 213 207 286 300 27 33 54 68 62 77 7 9 19
27 26 40 6 13 15 25 18 28 18 15 103 179 134 260 71 181 96 372 71 549 -4 31
-8 58 -9 61 -7 23 -19 87 -17 93 1 4 -3 7 -8 7 -6 0 -10 11 -10 24 0 14 -5 28
-10 31 -6 4 -8 11 -5 16 4 5 1 9 -6 9 -7 0 -10 3 -6 6 8 9 -77 171 -115 219
-70 88 -156 173 -216 214 -20 14 -42 31 -48 36 -6 6 -28 19 -50 30 -21 11 -41
23 -44 27 -6 7 -95 49 -115 54 -5 2 -44 16 -85 32 -105 42 -183 63 -280 78
-19 3 -42 8 -50 11 -16 6 -21 7 -120 17 -36 3 -82 9 -103 11 -31 4 -251 17
-282 16 -5 0 -49 -2 -98 -3 -48 -2 -87 1 -87 5 0 5 -6 5 -12 1 -14 -9 -75 -14
-210 -17 -49 -1 -88 -4 -88 -7 0 -5 -59 -11 -137 -14 -24 0 -43 -3 -43 -6 0
-3 -15 -6 -32 -6 -46 -2 -151 -14 -156 -18 -2 -2 -22 17 -45 42 -101 112 -270
271 -392 369 -120 95 -242 183 -254 183 -5 0 -11 4 -13 8 -5 12 -238 152 -253
152 -8 0 -15 3 -17 8 -3 7 -186 99 -248 124 -14 6 -38 18 -55 26 -16 9 -31 15
-33 14 -1 -1 -18 5 -38 13 -20 8 -42 15 -50 15 -7 0 -16 5 -19 10 -4 6 -11 8
-16 5 -5 -4 -9 -2 -9 3 0 5 -6 9 -12 9 -7 0 -47 11 -88 25 -102 34 -151 48
-175 51 -11 1 -24 5 -30 8 -10 6 -62 18 -145 33 -14 3 -50 10 -80 16 -30 6
-73 13 -95 16 -22 3 -51 7 -65 10 -14 2 -50 7 -80 10 -30 3 -71 7 -90 10 -42
6 -515 15 -521 10z"/>
</g>
</svg>
